<svg xmlns="http://www.w3.org/2000/svg" version="1.1" xmlns:xlink="http://www.w3.org/1999/xlink" width="512" height="512" x="0" y="0" viewBox="0 0 4335 4335" style="enable-background:new 0 0 512 512" xml:space="preserve" fill-rule="evenodd" class=""><g><path fill="#e31e24" d="M2081 895s-16 85-48 230c-32 144-59 203-59 203s-91-240-107-529-16-405 43-465 144 102 166 171c21 69 48 224 48 224s37-164 21-310c-15-146-224-146-224-146s-256 1-251 194c5 192-16 262 43 588 41 229 88 438 112 541 0 1 2 9 5 21 7 30 11 47 11 47s-150 363-492 1047-636 1053-743 1165-358 272-299 118c59-155 224-379 363-492 139-112 240-192 240-192s43-64-69-21-362 203-529 406-203 279-123 363 219 118 363 43 401-337 508-524 251-427 251-427 251-107 689-198c394-82 741-142 806-153 137 76 284 136 444 190 422 144 476 139 630 144 155 5 233-91 233-128s-30-75-30-75-32 171-609-37c-141-51-258-94-359-137 128-13 288-23 471-23 459 0 527 128 497 128 85-214-283-283-582-283-202 0-471 36-625 60-177-103-315-231-507-455-161-187-270-426-342-632 49-220 94-498 53-655zm549 1794c-138 21-353 62-608 140-449 139-652 219-652 219s224-401 321-598c88-182 227-513 248-565 55 104 134 232 249 378 143 181 287 318 442 426z" opacity="1" data-original="#e31e24"></path></g></svg>