<svg width="1320" height="1466" xmlns="http://www.w3.org/2000/svg" xmlns:xlink="http://www.w3.org/1999/xlink" xml:space="preserve" overflow="hidden"><g transform="translate(-1980 -587)"><path d="M2859.86 733.6 2420.14 733.6C2379.67 733.6 2346.86 700.782 2346.86 660.3 2346.86 619.818 2379.67 587 2420.14 587L2859.86 587C2900.33 587 2933.14 619.818 2933.14 660.3 2933.14 700.782 2900.33 733.6 2859.86 733.6ZM2859.86 2053 2420.14 2053C2258.24 2053 2127 1921.73 2127 1759.8L2127 880.2 3153 880.2 3153 1759.8C3153 1921.73 3021.76 2053 2859.86 2053Z" fill="#E04F5F" fill-rule="evenodd"/><path d="M3226.67 1027 2053.33 1027C2012.83 1027 1980 994.093 1980 953.5 1980 912.907 2012.83 880 2053.33 880L3226.67 880C3267.17 880 3300 912.907 3300 953.5 3300 994.093 3267.17 1027 3226.67 1027Z" fill="#C9273A" fill-rule="evenodd"/><path d="M2493.33 1760C2452.83 1760 2420 1727.15 2420 1686.62L2420 1246.37C2420 1205.85 2452.83 1173 2493.33 1173 2533.83 1173 2566.67 1205.85 2566.67 1246.37L2566.67 1686.62C2566.67 1727.15 2533.83 1760 2493.33 1760ZM2786.67 1760C2746.17 1760 2713.33 1727.15 2713.33 1686.62L2713.33 1246.37C2713.33 1205.85 2746.17 1173 2786.67 1173 2827.17 1173 2860 1205.85 2860 1246.37L2860 1686.62C2860 1727.15 2827.17 1760 2786.67 1760Z" fill="#EDEBEA" fill-rule="evenodd"/></g></svg>