<svg xmlns="http://www.w3.org/2000/svg" version="1.1" xmlns:xlink="http://www.w3.org/1999/xlink" width="512" height="512" x="0" y="0" viewBox="0 0 510 510" style="enable-background:new 0 0 512 512" xml:space="preserve" class=""><g><linearGradient id="e" x1="232.581" x2="326.126" y1="333.125" y2="494.703" gradientUnits="userSpaceOnUse"><stop offset="0" stop-color="#2f73a0"></stop><stop offset="1" stop-color="#174461"></stop></linearGradient><linearGradient id="a"><stop offset="0" stop-color="#092a40" stop-opacity="0"></stop><stop offset="1" stop-color="#092a40"></stop></linearGradient><linearGradient xlink:href="#a" id="f" x1="166.178" x2="140.447" y1="417.133" y2="478.093" gradientUnits="userSpaceOnUse"></linearGradient><linearGradient xlink:href="#a" id="g" x1="57.17" x2="31.439" y1="417.133" y2="478.093" gradientTransform="matrix(-1 0 0 1 400.993 0)" gradientUnits="userSpaceOnUse"></linearGradient><linearGradient id="h" x1="232.581" x2="326.126" y1="255.225" y2="416.804" gradientUnits="userSpaceOnUse"><stop offset="0" stop-color="#45a2e0"></stop><stop offset="1" stop-color="#2f73a0"></stop></linearGradient><linearGradient id="b"><stop offset="0" stop-color="#2f73a0" stop-opacity="0"></stop><stop offset="1" stop-color="#2f73a0"></stop></linearGradient><linearGradient xlink:href="#b" id="i" x1="255" x2="255" y1="366.482" y2="204.088" gradientUnits="userSpaceOnUse"></linearGradient><linearGradient id="c"><stop offset="0" stop-color="#174461" stop-opacity="0"></stop><stop offset="1" stop-color="#174461"></stop></linearGradient><linearGradient xlink:href="#c" id="j" x1="166.178" x2="140.447" y1="339.234" y2="400.193" gradientUnits="userSpaceOnUse"></linearGradient><linearGradient xlink:href="#c" id="k" x1="57.17" x2="31.439" y1="339.234" y2="400.193" gradientTransform="matrix(-1 0 0 1 400.993 0)" gradientUnits="userSpaceOnUse"></linearGradient><linearGradient id="l" x1="232.581" x2="326.126" y1="177.326" y2="338.904" gradientUnits="userSpaceOnUse"><stop offset="0" stop-color="#7acbff"></stop><stop offset="1" stop-color="#45a2e0"></stop></linearGradient><linearGradient xlink:href="#b" id="m" x1="255" x2="255" y1="279.31" y2="41.798" gradientUnits="userSpaceOnUse"></linearGradient><linearGradient xlink:href="#b" id="n" x1="166.178" x2="140.447" y1="261.334" y2="322.294" gradientUnits="userSpaceOnUse"></linearGradient><linearGradient xlink:href="#b" id="o" x1="57.17" x2="31.439" y1="261.334" y2="322.294" gradientTransform="matrix(-1 0 0 1 400.993 0)" gradientUnits="userSpaceOnUse"></linearGradient><linearGradient id="p" x1="232.581" x2="326.126" y1="99.426" y2="261.005" gradientUnits="userSpaceOnUse"><stop offset="0" stop-color="#c7e9ff"></stop><stop offset="1" stop-color="#7acbff"></stop></linearGradient><linearGradient id="d"><stop offset="0" stop-color="#7acbff" stop-opacity="0"></stop><stop offset="1" stop-color="#2f73a0"></stop></linearGradient><linearGradient xlink:href="#d" id="q" x1="243.477" x2="328.523" y1="212.566" y2="-49.185" gradientUnits="userSpaceOnUse"></linearGradient><linearGradient xlink:href="#d" id="r" x1="166.178" x2="140.447" y1="183.435" y2="244.394" gradientUnits="userSpaceOnUse"></linearGradient><linearGradient xlink:href="#d" id="s" x1="57.17" x2="31.439" y1="183.435" y2="244.394" gradientTransform="matrix(-1 0 0 1 400.993 0)" gradientUnits="userSpaceOnUse"></linearGradient><path fill="url(#e)" d="M221.93 260.977 10.848 355.132c-14.464 6.452-14.464 26.983 0 33.435l211.081 94.155a81.184 81.184 0 0 0 66.141 0l211.081-94.155c14.464-6.452 14.464-26.983 0-33.435L288.07 260.977a81.174 81.174 0 0 0-66.14 0z" opacity="1" data-original="url(#e)"></path><path fill="url(#f)" d="m334.042 462.215-45.967 20.51a81.247 81.247 0 0 1-66.151 0l-211.069-94.16c-14.472-6.449-14.472-26.988 0-33.437l41.502-18.512c-.001.001 280.678 125.174 281.685 125.599z" opacity="1" data-original="url(#f)"></path><path fill="url(#g)" d="m175.958 462.215 45.967 20.51a81.247 81.247 0 0 0 66.151 0l211.069-94.16c14.472-6.449 14.472-26.988 0-33.437l-41.502-18.512c.001.001-280.678 125.174-281.685 125.599z" opacity="1" data-original="url(#g)"></path><path fill="url(#h)" d="M221.93 183.077 10.848 277.232c-14.464 6.452-14.464 26.983 0 33.435l211.081 94.155a81.184 81.184 0 0 0 66.141 0l211.081-94.155c14.464-6.452 14.464-26.983 0-33.435L288.07 183.077a81.182 81.182 0 0 0-66.14 0z" opacity="1" data-original="url(#h)"></path><path fill="url(#i)" d="M221.93 260.977 60.69 332.9l161.24 71.923a81.184 81.184 0 0 0 66.141 0L449.31 332.9l-161.24-71.923a81.174 81.174 0 0 0-66.14 0z" opacity="1" data-original="url(#i)"></path><path fill="url(#j)" d="m334.042 384.315-45.967 20.51a81.247 81.247 0 0 1-66.151 0l-211.069-94.16c-14.472-6.449-14.472-26.988 0-33.437l41.502-18.512c-.001.001 280.678 125.174 281.685 125.599z" opacity="1" data-original="url(#j)"></path><path fill="url(#k)" d="m175.958 384.315 45.967 20.51a81.247 81.247 0 0 0 66.151 0l211.069-94.16c14.472-6.449 14.472-26.988 0-33.437l-41.502-18.512c.001.001-280.678 125.174-281.685 125.599z" opacity="1" data-original="url(#k)"></path><path fill="url(#l)" d="M221.93 105.178 10.848 199.333c-14.464 6.452-14.464 26.983 0 33.435l211.081 94.155a81.184 81.184 0 0 0 66.141 0l211.081-94.155c14.464-6.452 14.464-26.983 0-33.435L288.07 105.178a81.174 81.174 0 0 0-66.14 0z" opacity="1" data-original="url(#l)"></path><path fill="url(#m)" d="M221.93 183.077 60.69 255l161.24 71.923a81.184 81.184 0 0 0 66.141 0L449.31 255l-161.24-71.923a81.182 81.182 0 0 0-66.14 0z" opacity="1" data-original="url(#m)"></path><path fill="url(#n)" d="m334.042 306.416-45.967 20.51a81.247 81.247 0 0 1-66.151 0l-211.069-94.16c-14.472-6.449-14.472-26.988 0-33.437l41.502-18.512c-.001.001 280.678 125.174 281.685 125.599z" opacity="1" data-original="url(#n)"></path><path fill="url(#o)" d="m175.958 306.416 45.967 20.51a81.247 81.247 0 0 0 66.151 0l211.069-94.16c14.472-6.449 14.472-26.988 0-33.437l-41.502-18.512c.001.001-280.678 125.174-281.685 125.599z" opacity="1" data-original="url(#o)"></path><path fill="url(#p)" d="M221.93 27.278 10.848 121.433c-14.464 6.452-14.464 26.983 0 33.435l211.081 94.155a81.184 81.184 0 0 0 66.141 0l211.081-94.155c14.464-6.452 14.464-26.983 0-33.435l-211.08-94.155a81.184 81.184 0 0 0-66.141 0z" opacity="1" data-original="url(#p)"></path><path fill="url(#q)" d="M221.93 105.178 60.69 177.101l161.24 71.923a81.184 81.184 0 0 0 66.141 0l161.24-71.923-161.24-71.923a81.176 81.176 0 0 0-66.141 0z" opacity="1" data-original="url(#q)"></path><path fill="url(#r)" d="m334.042 228.516-45.967 20.51a81.247 81.247 0 0 1-66.151 0l-211.069-94.16c-14.472-6.449-14.472-26.988 0-33.437l41.502-18.512c-.001.001 280.678 125.174 281.685 125.599z" opacity="1" data-original="url(#r)"></path><path fill="url(#s)" d="m175.958 228.516 45.967 20.51a81.247 81.247 0 0 0 66.151 0l211.069-94.16c14.472-6.449 14.472-26.988 0-33.437l-41.502-18.512c.001.001-280.678 125.174-281.685 125.599z" opacity="1" data-original="url(#s)"></path></g></svg>