<svg width="714" height="439" xmlns="http://www.w3.org/2000/svg" xmlns:xlink="http://www.w3.org/1999/xlink" xml:space="preserve" overflow="hidden"><g transform="translate(-1843 -1018)"><path d="M1860 1073.43C1860 1052.21 1877.21 1035 1898.43 1035L2501.57 1035C2522.79 1035 2540 1052.21 2540 1073.43L2540 1401.57C2540 1422.79 2522.79 1440 2501.57 1440L1898.43 1440C1877.21 1440 1860 1422.79 1860 1401.57Z" stroke="#000000" stroke-width="34.375" stroke-miterlimit="8" fill="none" fill-rule="evenodd"/><path d="M2403 1354 2334 1354 2334 1234.07 2265 1234.07 2368.5 1121 2472 1234.07 2403 1234.07Z" fill-rule="evenodd"/><path d="M1925 1121 1993.75 1121 2062.5 1206.66 2131.25 1121 2200 1121 2200 1354 2131.25 1354 2131.25 1220.37 2062.5 1306.03 1993.75 1220.37 1993.75 1354 1925 1354Z" fill-rule="evenodd"/></g></svg>