<svg width="526" height="1096" xmlns="http://www.w3.org/2000/svg" xmlns:xlink="http://www.w3.org/1999/xlink" xml:space="preserve" overflow="hidden"><defs><clipPath id="clip0"><rect x="1467" y="625" width="526" height="1096"/></clipPath><linearGradient x1="1312.82" y1="966.115" x2="2131.18" y2="1355.88" gradientUnits="userSpaceOnUse" spreadMethod="reflect" id="fill1"><stop offset="0" stop-color="#F885A1"/><stop offset="0.0344828" stop-color="#F786A2"/><stop offset="0.0689655" stop-color="#F787A4"/><stop offset="0.103448" stop-color="#F788A6"/><stop offset="0.137931" stop-color="#F789A8"/><stop offset="0.172414" stop-color="#F68AA9"/><stop offset="0.206897" stop-color="#F68BAB"/><stop offset="0.241379" stop-color="#F58CAC"/><stop offset="0.275862" stop-color="#F58DAE"/><stop offset="0.310345" stop-color="#F48EAF"/><stop offset="0.344828" stop-color="#F38FB0"/><stop offset="0.37931" stop-color="#F390B2"/><stop offset="0.413793" stop-color="#F291B3"/><stop offset="0.448276" stop-color="#F191B4"/><stop offset="0.482759" stop-color="#F092B5"/><stop offset="0.517241" stop-color="#EF93B6"/><stop offset="0.551724" stop-color="#EE93B7"/><stop offset="0.586207" stop-color="#EC94B8"/><stop offset="0.62069" stop-color="#EB94B9"/><stop offset="0.655172" stop-color="#EA95BA"/><stop offset="0.689655" stop-color="#E995BA"/><stop offset="0.724138" stop-color="#E796BB"/><stop offset="0.758621" stop-color="#E696BB"/><stop offset="0.793103" stop-color="#E497BC"/><stop offset="0.827586" stop-color="#E297BC"/><stop offset="0.862069" stop-color="#E197BD"/><stop offset="0.896552" stop-color="#DF97BD"/><stop offset="0.931035" stop-color="#DD97BD"/><stop offset="0.965517" stop-color="#DB97BD"/><stop offset="1" stop-color="#DA98BE"/></linearGradient><linearGradient x1="1399.05" y1="958.685" x2="1850.6" y2="1275.54" gradientUnits="userSpaceOnUse" spreadMethod="reflect" id="fill2"><stop offset="0" stop-color="#715BA9"/><stop offset="0.02" stop-color="#725BA8"/><stop offset="0.04" stop-color="#745BA8"/><stop offset="0.06" stop-color="#765BA8"/><stop offset="0.08" stop-color="#785BA8"/><stop offset="0.1" stop-color="#7A5BA8"/><stop offset="0.12" stop-color="#7B5BA8"/><stop offset="0.14" stop-color="#7D5BA8"/><stop offset="0.16" stop-color="#7F5BA8"/><stop offset="0.18" stop-color="#805BA8"/><stop offset="0.2" stop-color="#825BA8"/><stop offset="0.22" stop-color="#835BA8"/><stop offset="0.24" stop-color="#855BA8"/><stop offset="0.26" stop-color="#875BA8"/><stop offset="0.28" stop-color="#885BA8"/><stop offset="0.3" stop-color="#895BA8"/><stop offset="0.32" stop-color="#8B5BA8"/><stop offset="0.34" stop-color="#8C5BA8"/><stop offset="0.36" stop-color="#8D5BA8"/><stop offset="0.38" stop-color="#8F5BA8"/><stop offset="0.4" stop-color="#905BA8"/><stop offset="0.42" stop-color="#915BA8"/><stop offset="0.44" stop-color="#925BA8"/><stop offset="0.46" stop-color="#935BA8"/><stop offset="0.48" stop-color="#955BA8"/><stop offset="0.5" stop-color="#965BA8"/><stop offset="0.52" stop-color="#975BA8"/><stop offset="0.54" stop-color="#985BA8"/><stop offset="0.56" stop-color="#995BA8"/><stop offset="0.58" stop-color="#995BA8"/><stop offset="0.6" stop-color="#9A5BA8"/><stop offset="0.62" stop-color="#9B5BA8"/><stop offset="0.64" stop-color="#9C5BA8"/><stop offset="0.66" stop-color="#9D5BA8"/><stop offset="0.68" stop-color="#9D5BA8"/><stop offset="0.7" stop-color="#9E5BA8"/><stop offset="0.72" stop-color="#9F5BA8"/><stop offset="0.74" stop-color="#9F5BA8"/><stop offset="0.76" stop-color="#A05BA8"/><stop offset="0.78" stop-color="#A15BA8"/><stop offset="0.8" stop-color="#A15BA8"/><stop offset="0.82" stop-color="#A15BA8"/><stop offset="0.84" stop-color="#A25BA8"/><stop offset="0.86" stop-color="#A25BA8"/><stop offset="0.88" stop-color="#A35BA8"/><stop offset="0.9" stop-color="#A35BA8"/><stop offset="0.92" stop-color="#A35BA8"/><stop offset="0.94" stop-color="#A35BA8"/><stop offset="0.96" stop-color="#A35BA8"/><stop offset="0.98" stop-color="#A35BA8"/><stop offset="1" stop-color="#A45CA8"/></linearGradient></defs><g clip-path="url(#clip0)" transform="translate(-1467 -625)"><path d="M1823.92 666.021C1859.14 665.743 1867.82 668.279 1895.8 667.599L1895.8 667.599C1929.27 667.599 1960.38 683.297 1978.15 709.153 1998.2 738.305 1997.93 775.401 1977.46 804.309 1963.88 823.506 1942.9 836.921 1919.16 842.28L1895.8 844.752 1895.8 844.876 1750.48 844.876 1716.88 869.912C1705.22 881.441 1694.56 895.005 1685.59 909.928 1676.03 925.82 1668.82 942.531 1664.26 958.973L1661.41 973.308 1661.41 1123.58 1808.82 1123.58 1808.82 1123.58 1808.82 1123.58 1814.43 1123.58 1814.43 1124.26 1825.77 1125.64C1842.26 1129.71 1857.04 1139.64 1867.32 1153.98 1886.46 1180.69 1886.21 1217.18 1866.71 1243.61 1856.29 1257.74 1841.46 1267.44 1825 1271.31L1814.43 1272.48 1814.43 1273.18 1661.41 1273.18 1661.41 1721 1491.46 1721 1491.46 1004.42 1491 996.241 1491.46 987.948 1491.46 970.649 1492.43 970.649C1492.6 967.759 1492.76 964.869 1492.92 961.979 1498.01 916.093 1513.22 869.731 1538.08 826.977 1574.44 764.435 1628.1 715.413 1688.61 687.735 1720.37 681.93 1727.83 676.124 1778.17 667.461 1797.5 666.519 1812.19 666.114 1823.92 666.021Z" fill="#F48ADB" fill-rule="evenodd"/><path d="M1803.92 634.021C1839.14 633.743 1847.82 636.277 1875.8 635.597L1875.8 635.598C1909.27 635.598 1940.38 651.281 1958.15 677.112 1978.2 706.237 1977.93 743.297 1957.46 772.178 1943.88 791.357 1922.9 804.759 1899.16 810.113L1875.8 812.583 1875.8 812.707 1730.48 812.707 1696.88 837.719C1685.22 849.237 1674.56 862.788 1665.59 877.697 1656.03 893.574 1648.82 910.27 1644.26 926.696L1641.41 941.017 1641.41 1091.15 1788.82 1091.15 1788.82 1091.14 1788.82 1091.15 1794.43 1091.15 1794.43 1091.83 1805.77 1093.21C1822.26 1097.27 1837.04 1107.2 1847.32 1121.52 1866.46 1148.2 1866.21 1184.66 1846.71 1211.07 1836.29 1225.18 1821.46 1234.87 1805 1238.73L1794.43 1239.9 1794.43 1240.61 1641.41 1240.61 1641.41 1688 1471.46 1688 1471.46 972.101 1471 963.928 1471.46 955.643 1471.46 938.36 1472.43 938.361C1472.6 935.473 1472.76 932.586 1472.92 929.699 1478.01 883.856 1493.22 837.539 1518.08 794.825 1554.44 732.342 1608.1 683.366 1668.61 655.714 1700.37 649.915 1707.83 644.115 1758.17 635.459 1777.5 634.519 1792.18 634.114 1803.92 634.021Z" fill="url(#fill1)" fill-rule="evenodd"/><path d="M1788.4 625.485C1821.53 624.696 1857.69 628.194 1897.09 636.858 1945.64 653.806 1962.42 673.791 1962.14 688.868 1961.86 703.945 1953.66 725.093 1895.41 727.323 1627.85 691.14 1560.17 924.686 1561.25 967.672L1561.15 967.675 1561.15 1688.02 1468.12 1688.02 1468.12 970.11 1467.27 970.132 1468.12 963.547 1468.12 959.856 1468.6 959.856 1474.71 912.426C1499.92 789.271 1589.63 630.22 1788.4 625.485Z" fill="url(#fill2)" fill-rule="evenodd"/></g></svg>