<svg xmlns="http://www.w3.org/2000/svg" version="1.1" xmlns:xlink="http://www.w3.org/1999/xlink" xmlns:svgjs="http://svgjs.com/svgjs" width="512" height="512" x="0" y="0" viewBox="0 0 512 512" style="enable-background:new 0 0 512 512" xml:space="preserve" class=""><g><g xmlns="http://www.w3.org/2000/svg"><circle cx="256" cy="256" fill="#f54ea2" r="256" data-original="#ea1d82" class=""></circle><path d="m383.234 140.467c-1.847-2.031-3.746-4.032-5.707-5.993-67.117-67.117-175.935-67.117-243.052 0s-67.117 175.935 0 243.052c.046.046.094.09.14.137l-6.029 5.752 128.571 128.571c140.339-.622 253.999-114.159 254.825-254.449l-122.772-122.772z" fill="#590071" data-original="#c2126a" class=""></path><g><g><path d="m327.036 256-71.036 142.071c-78.464 0-142.071-63.608-142.071-142.071s63.607-142.071 142.071-142.071z" fill="#f1f1f1" data-original="#9afaff" class=""></path><path d="m398.071 256c0 78.464-63.608 142.071-142.071 142.071v-284.142c78.464 0 142.071 63.607 142.071 142.071z" fill="#ffffff" data-original="#00e6ef" class=""></path></g><path d="m222.551 307.821 16.841-6.355-41.131-108.992-16.457.021-41.489 108.937 16.821 6.407 9.982-26.209h45.549zm-48.578-44.192 16.023-42.072 15.877 42.072z" fill="#7a3eb4" data-original="#7a3eb4" class=""></path><g><g><path d="m366.253 305.857h-51.648v-114.009h18v96.009h33.648z" fill="#613393" data-original="#613393" class=""></path></g></g><path d="m256 191.863h-9.002v114.01h9.002l4.871-7.9v-100.894z" fill="#7a3eb4" data-original="#7a3eb4" class=""></path><g><g><path d="m298.646 305.873h-42.646v-114.01h8.998v96.01h33.648z" fill="#613393" data-original="#613393" class=""></path></g></g><path d="m256 448.028-34.205-19.603 34.205-19.602v12.38l5.929 7.222-5.929 7.778z" fill="#ffffff" data-original="#ffffff" class=""></path><g><g><path d="m160.467 408.823c-25.41-15.917-46.642-38.112-61.399-64.188-15.224-26.898-23.271-57.548-23.271-88.635 0-99.364 80.839-180.203 180.203-180.203l5.767 7.594-5.767 7.406c-91.094 0-165.203 74.109-165.203 165.203 0 57.283 29.021 109.661 77.633 140.11z" fill="#ffffff" data-original="#ffffff" class=""></path></g><g><path d="m256 436.203v-15c91.094 0 165.203-74.109 165.203-165.203s-74.109-165.203-165.203-165.203v-15c99.364 0 180.203 80.839 180.203 180.203s-80.839 180.203-180.203 180.203z" fill="#e2e2eb" data-original="#e2e2eb" class=""></path></g></g></g></g></g></svg>