<svg xmlns="http://www.w3.org/2000/svg" version="1.1" xmlns:xlink="http://www.w3.org/1999/xlink" xmlns:svgjs="http://svgjs.com/svgjs" width="512" height="512" x="0" y="0" viewBox="0 0 511 511.99982" style="enable-background:new 0 0 512 512" xml:space="preserve" class=""><g><path xmlns="http://www.w3.org/2000/svg" d="m430.226562 182.203125h-101.730468c-9.515625 0-15.519532-10.242187-10.867188-18.546875l64.417969-115.050781c12.1875-21.765625-3.546875-48.605469-28.492187-48.605469h-201.117188c-22.535156 0-43.308594 12.179688-54.320312 31.839844l-93.410157 166.832031c-12.183593 21.765625 3.546875 48.605469 28.492188 48.605469h90.722656c9.417969 0 15.429687 10.046875 10.976563 18.347656l-110.171876 205.292969c-13.980468 26.050781 17.035157 52.996093 40.878907 35.507812l379.613281-278.429687c19.757812-14.488282 9.507812-45.792969-14.992188-45.792969zm0 0" fill="#ff94de" data-original="#ff94de" class=""></path><path xmlns="http://www.w3.org/2000/svg" d="m33.199219 247.273438h65.84375c9.5625-34.449219 21.621093-62.421876 34.496093-85.101563 31.691407-55.816406 92.613282-88.089844 156.703126-84.578125 36.378906 1.992188 62.867187-3.457031 81.601562-10.765625l10.203125-18.226563c12.1875-21.761718-3.546875-48.601562-28.492187-48.601562h-201.117188c-22.535156 0-43.308594 12.179688-54.320312 31.839844l-93.410157 166.832031c-12.183593 21.765625 3.546875 48.601563 28.492188 48.601563zm0 0" fill="#ff71da" data-original="#ff71da" class=""></path><path xmlns="http://www.w3.org/2000/svg" d="m123.921875 247.273438c9.417969 0 15.429687 10.050781 10.976563 18.347656l-110.171876 205.296875c-13.980468 26.050781 17.035157 52.996093 40.878907 35.507812l12.496093-9.164062 146.050782-273.90625c9.152344-17.164063-3.285156-37.894531-22.738282-37.894531h-105.296874c-5.894532 0-9.613282-6.34375-6.726563-11.484376 17.84375-31.78125 68.480469-121.980468 97.71875-173.976562h-34.671875c-22.535156 0-43.3125 12.179688-54.320312 31.839844l-93.410157 166.832031c-12.183593 21.765625 3.546875 48.601563 28.492188 48.601563zm0 0" fill="#ffde55" data-original="#ffde55"></path><path xmlns="http://www.w3.org/2000/svg" d="m98.117188 31.839844-93.410157 166.832031c-12.183593 21.765625 3.546875 48.601563 28.492188 48.601563h65.84375c6.519531-23.488282 14.199219-43.96875 22.507812-61.808594h-25.433593c-5.894532 0-9.613282-6.34375-6.726563-11.484375 17.84375-31.785157 68.480469-121.984375 97.71875-173.980469h-34.671875c-22.535156 0-43.308594 12.179688-54.320312 31.839844zm0 0" fill="#ffcd00" data-original="#ffcd00" class=""></path></g></svg>