<svg xmlns="http://www.w3.org/2000/svg" version="1.1" xmlns:xlink="http://www.w3.org/1999/xlink" xmlns:svgjs="http://svgjs.com/svgjs" width="512" height="512" x="0" y="0" viewBox="0 0 64 64" style="enable-background:new 0 0 512 512" xml:space="preserve" class=""><g><g><g><g><path d="m54.171 12.171-10.342-10.342c-.7-.7-1.829-.829-1.829-.829h-29c-2.2 0-4 1.8-4 4v54c0 2.2 1.8 4 4 4h38c2.2 0 4-1.8 4-4v-45s-.129-1.129-.829-1.829z" fill="#d1e7f8" data-original="#d1e7f8"></path></g><g><path d="m54.171 12.171-10.342-10.342c-.7-.7-1.829-.829-1.829-.829v9c0 2.2 1.8 4 4 4h9s-.129-1.129-.829-1.829z" fill="#00ddc2" data-original="#00ddc2"></path></g></g><path d="m55.994 13.886c-.018-.151-.196-1.502-1.115-2.422l-10.343-10.342c-.919-.919-2.271-1.098-2.422-1.115-.038-.005-.076-.007-.114-.007h-29c-2.757 0-5 2.243-5 5v54c0 2.757 2.243 5 5 5h38c2.757 0 5-2.243 5-5v-45c0-.038-.002-.076-.006-.114zm-2.53-1.008c.035.035.06.082.091.122h-7.555c-1.654 0-3-1.346-3-3v-7.555c.04.031.086.056.122.091zm-2.464 49.122h-38c-1.654 0-3-1.346-3-3v-54c0-1.654 1.346-3 3-3h28v8c0 2.757 2.243 5 5 5h8v44c0 1.654-1.346 3-3 3z" fill="#1a6fb0" data-original="#1a6fb0"></path></g></g></svg>