<svg width="1352" height="1760" xmlns="http://www.w3.org/2000/svg" xmlns:xlink="http://www.w3.org/1999/xlink" xml:space="preserve" overflow="hidden"><defs><clipPath id="clip0"><rect x="1524" y="358" width="1352" height="1760"/></clipPath><clipPath id="clip1"><rect x="1842" y="860" width="716" height="441"/></clipPath><clipPath id="clip2"><rect x="1842" y="860" width="716" height="441"/></clipPath><clipPath id="clip3"><rect x="1842" y="860" width="716" height="441"/></clipPath></defs><g clip-path="url(#clip0)" transform="translate(-1524 -358)"><path d="M2482.51 358 1570 358C1544.59 358 1524 378.586 1524 418.531L1524 2086.57C1524 2097.41 1544.59 2118 1570 2118L2830 2118C2855.41 2118 2876 2097.41 2876 2086.57L2876 765.88C2876 744.006 2873.08 736.966 2867.92 731.78L2502.06 366.077C2496.87 360.923 2489.83 358 2482.51 358Z" fill="#E9E9E0" fill-rule="evenodd"/><path d="M2499 362 2499 735 2871 735Z" fill="#D9D7CA" fill-rule="evenodd"/><path d="M2830 2117 1570 2117C1544.59 2117 1524 2096.43 1524 2071.04L1524 1583 2876 1583 2876 2071.04C2876 2096.43 2855.41 2117 2830 2117Z" fill-rule="evenodd"/><g clip-path="url(#clip1)"><g clip-path="url(#clip2)"><g clip-path="url(#clip3)"><path d="M2506.44 877.188C2525.42 877.188 2540.81 892.578 2540.81 911.563L2540.81 1248.44C2540.81 1267.42 2525.42 1282.81 2506.44 1282.81L1894.56 1282.81C1875.58 1282.81 1860.19 1267.42 1860.19 1248.44L1860.19 911.563C1860.19 892.578 1875.58 877.188 1894.56 877.188Z" stroke="#000000" stroke-width="34.375" fill="none"/><path d="M1946.12 1196.88 1946.12 963.125 2014.87 963.125 2083.62 1049.06 2152.38 963.125 2221.12 963.125 2221.12 1196.88 2152.38 1196.88 2152.38 1062.81 2083.62 1148.75 2014.87 1062.81 2014.87 1196.88ZM2375.81 1196.88 2272.69 1083.44 2341.44 1083.44 2341.44 963.125 2410.19 963.125 2410.19 1083.44 2478.94 1083.44Z"/></g></g></g><text fill="#FFFFFF" font-family="Arial,Arial_MSFontService,sans-serif" font-weight="700" font-size="202" transform="matrix(1 0 0 1 1696.08 1924)">Markdown</text></g></svg>