<svg width="1918" height="1760" xmlns="http://www.w3.org/2000/svg" xmlns:xlink="http://www.w3.org/1999/xlink" xml:space="preserve" overflow="hidden"><defs><clipPath id="clip0"><rect x="585" y="303" width="1918" height="1760"/></clipPath><clipPath id="clip1"><rect x="585" y="302" width="1761" height="1761"/></clipPath><clipPath id="clip2"><rect x="585" y="302" width="1761" height="1761"/></clipPath><clipPath id="clip3"><rect x="585" y="302" width="1761" height="1761"/></clipPath></defs><g clip-path="url(#clip0)" transform="translate(-585 -303)"><g clip-path="url(#clip1)"><g clip-path="url(#clip2)"><g clip-path="url(#clip3)"><path d="M2088.33 486.335 841.668 486.335C740.66 486.17 658.642 567.921 658.477 668.932 658.463 677.151 659.003 685.36 660.096 693.503 662.694 713.585 681.082 727.758 701.167 725.159 706.058 724.527 710.771 722.915 715.023 720.415 731.2 711.004 749.622 706.14 768.336 706.335L1029.4 706.335C1076.52 706.466 1118.38 736.431 1133.68 780.988L1139.92 801.08C1165.15 875.766 1235.1 926.119 1313.94 926.332L2161.67 926.332C2180.9 926.349 2199.78 931.406 2216.45 941 2222.08 944.283 2228.48 946.001 2235 945.988 2255.25 945.988 2271.67 929.57 2271.67 909.32L2271.67 669.668C2271.67 568.416 2189.59 486.335 2088.33 486.335Z" fill="#FFA000"/><path d="M2253.55 877.788C2225.66 861.532 2193.95 852.979 2161.66 853L1313.93 853C1266.82 852.869 1224.96 822.905 1209.65 778.348L1203.42 758.255C1178.19 683.569 1108.23 633.216 1029.4 633.003L768.332 633.003C736.828 632.697 705.825 640.879 678.572 656.691 620.778 689.035 584.983 750.102 585 816.335L585 1696.34C585 1797.59 667.081 1879.67 768.332 1879.67L2161.66 1879.67C2262.92 1879.67 2345 1797.59 2345 1696.34L2345 1036.34C2345.22 970.892 2310.31 910.365 2253.55 877.788Z" fill="#FFC107"/></g></g></g><path d="M2503 1688.5C2503 1855.57 2367.57 1991 2200.5 1991 2033.43 1991 1898 1855.57 1898 1688.5 1898 1521.43 2033.43 1386 2200.5 1386 2367.57 1386 2503 1521.43 2503 1688.5Z" fill="#26E2A8" fill-rule="evenodd"/><path d="M2337.5 1661.5 2227.5 1661.5 2227.5 1551.5C2227.5 1536.31 2215.19 1524 2200 1524 2184.81 1524 2172.5 1536.31 2172.5 1551.5L2172.5 1661.5 2062.5 1661.5C2047.31 1661.5 2035 1673.81 2035 1689 2035 1704.19 2047.31 1716.5 2062.5 1716.5L2172.5 1716.5 2172.5 1826.5C2172.5 1841.69 2184.81 1854 2200 1854 2215.19 1854 2227.5 1841.69 2227.5 1826.5L2227.5 1716.5 2337.5 1716.5C2352.69 1716.5 2365 1704.19 2365 1689 2365 1673.81 2352.69 1661.5 2337.5 1661.5Z" fill="#E0E0E0" fill-rule="evenodd"/></g></svg>