<svg xmlns="http://www.w3.org/2000/svg" version="1.1" xmlns:xlink="http://www.w3.org/1999/xlink" xmlns:svgjs="http://svgjs.com/svgjs" width="512" height="512" x="0" y="0" viewBox="0 0 512 512" style="enable-background:new 0 0 512 512" xml:space="preserve" class=""><g><g xmlns="http://www.w3.org/2000/svg"><path d="m402.504 480.652h-258.859c-79.333 0-143.645-64.312-143.645-143.645v-258.859c0-25.847 20.953-46.799 46.799-46.799h355.705c25.847 0 46.799 20.953 46.799 46.799v355.705c.001 25.846-20.952 46.799-46.799 46.799z" fill="#f7ef87" data-original="#f7ef87"></path><path d="m449.304 78.148c0-2.951-.286-5.835-.808-8.634-.765-.027-1.529-.056-2.299-.056-17.083 0-33.144 6.652-45.223 18.732l-193.965 193.964c-15.039 15.039-25.031 34.042-28.896 54.955l-8.011 43.345c-2.873 15.543 1.27 31.416 11.366 43.551 10.126 12.171 24.968 19.15 40.719 19.151h.003c3.24 0 6.51-.301 9.719-.894l43.345-8.012c20.913-3.866 39.916-13.858 54.955-28.896l119.096-119.096v-208.11z" fill="#eed076" data-original="#eed076"></path><g><g><g><g><ellipse cx="138.565" cy="144.518" fill="#e8899e" rx="31.765" ry="25.296" data-original="#e8899e"></ellipse></g><g><ellipse cx="310.739" cy="144.518" fill="#e8899e" rx="31.765" ry="25.296" data-original="#e8899e"></ellipse></g></g></g><g fill="#4e5660"><path d="m157.077 127.356c-4.142 0-7.5-3.358-7.5-7.5v-12.362c0-4.142 3.358-7.5 7.5-7.5s7.5 3.358 7.5 7.5v12.362c0 4.142-3.358 7.5-7.5 7.5z" fill="#4e5660" data-original="#4e5660"></path><path d="m224.652 135.397c-8.997 0-17.551-3.896-23.47-10.689-2.721-3.123-2.395-7.861.728-10.582 3.123-2.72 7.861-2.395 10.582.728 3.069 3.523 7.502 5.543 12.161 5.543s9.092-2.02 12.162-5.543c2.722-3.124 7.459-3.448 10.582-.727s3.448 7.459.727 10.581c-5.921 6.793-14.476 10.689-23.472 10.689z" fill="#4e5660" data-original="#4e5660"></path><path d="m308.939 127.011c-4.142 0-7.5-3.358-7.5-7.5 0-3.764-3.062-6.826-6.826-6.826s-6.826 3.062-6.826 6.826c0 4.142-3.358 7.5-7.5 7.5s-7.5-3.358-7.5-7.5c0-12.035 9.791-21.826 21.826-21.826s21.826 9.791 21.826 21.826c0 4.142-3.358 7.5-7.5 7.5z" fill="#4e5660" data-original="#4e5660"></path></g></g><g fill="#4e5660"><path d="m356.33 228.544h-263.355c-4.142 0-7.5-3.358-7.5-7.5s3.358-7.5 7.5-7.5h263.355c4.142 0 7.5 3.358 7.5 7.5 0 4.143-3.358 7.5-7.5 7.5z" fill="#4e5660" data-original="#4e5660"></path><path d="m319.847 290.433h-190.39c-4.142 0-7.5-3.358-7.5-7.5s3.358-7.5 7.5-7.5h190.389c4.142 0 7.5 3.358 7.5 7.5.001 4.142-3.357 7.5-7.499 7.5z" fill="#4e5660" data-original="#4e5660"></path></g><g><path d="m357.563 174.067h112.42v49.045h-112.42z" fill="#8ea3e2" transform="matrix(.707 .707 -.707 .707 261.616 -234.417)" data-original="#8ea3e2"></path><path d="m502.32 142.796-32.754-32.754c-12.907-12.907-33.833-12.907-46.739 0l-31.46 31.46 79.493 79.493 31.46-31.46c12.907-12.906 12.907-33.832 0-46.739z" fill="#e8899e" data-original="#e8899e"></path><path d="m269.636 403.86-43.345 8.012c-15.266 2.822-28.622-10.534-25.8-25.8l8.012-43.345c2.711-14.669 9.81-28.17 20.359-38.719l127.825-127.825 79.493 79.493-127.825 127.825c-10.549 10.548-24.05 17.647-38.719 20.359z" fill="#ffffff" data-original="#ffffff"></path><path d="m247.352 336.082 13.307 4.804c5.036 1.818 9 5.783 10.818 10.818l4.804 13.307c1.818 5.035 5.783 9 10.818 10.818l21.256 7.673 127.825-127.826-79.493-79.493-127.825 127.825 7.673 21.256c1.817 5.035 5.782 9 10.817 10.818z" fill="#a3defe" data-original="#a3defe"></path><path d="m293.543 239.327-64.681 64.681 7.673 21.256c1.818 5.035 5.783 9 10.818 10.818l13.307 4.804c5.036 1.818 9 5.783 10.818 10.818l4.804 13.307c1.818 5.035 5.783 9 10.818 10.818l21.256 7.673 15.348-15.348c-30.126-31.241-34.806-87.841-30.161-128.827z" fill="#7acefa" data-original="#7acefa"></path><path d="m206.833 351.759-6.342 34.313c-2.822 15.266 10.534 28.622 25.8 25.8l34.313-6.342z" fill="#4e5660" data-original="#4e5660"></path><path d="m313.123 306.739c-1.919 0-3.839-.733-5.303-2.197-2.929-2.929-2.929-7.678 0-10.607l30.779-30.78c2.929-2.929 7.678-2.929 10.607 0s2.929 7.678 0 10.606l-30.779 30.78c-1.465 1.466-3.384 2.198-5.304 2.198z" fill="#ffffff" data-original="#ffffff"></path></g><path d="m0 337.007c0 79.333 64.312 143.645 143.645 143.645h42.79c-29.034 0-52.57-23.536-52.57-52.57v-44.991c0-20.05-16.254-36.304-36.304-36.304h-44.991c-29.034 0-52.57-23.537-52.57-52.57z" fill="#eed076" data-original="#eed076"></path></g></g></svg>