<svg width="1484" height="1535" xmlns="http://www.w3.org/2000/svg" xmlns:xlink="http://www.w3.org/1999/xlink" xml:space="preserve" overflow="hidden"><defs><filter id="fx0" x="-10%" y="-10%" width="120%" height="120%" filterUnits="userSpaceOnUse" primitiveUnits="userSpaceOnUse"><feComponentTransfer color-interpolation-filters="sRGB"><feFuncR type="discrete" tableValues="0 0"/><feFuncG type="discrete" tableValues="0 0"/><feFuncB type="discrete" tableValues="0 0"/><feFuncA type="linear" slope="0.2" intercept="0"/></feComponentTransfer><feGaussianBlur stdDeviation="4.58333 4.58333"/></filter><filter id="fx1" x="-10%" y="-10%" width="120%" height="120%" filterUnits="userSpaceOnUse" primitiveUnits="userSpaceOnUse"><feComponentTransfer color-interpolation-filters="sRGB"><feFuncR type="discrete" tableValues="0 0"/><feFuncG type="discrete" tableValues="0 0"/><feFuncB type="discrete" tableValues="0 0"/><feFuncA type="linear" slope="0.2" intercept="0"/></feComponentTransfer><feGaussianBlur stdDeviation="4.58333 4.58333"/></filter><filter id="fx2" x="-10%" y="-10%" width="120%" height="120%" filterUnits="userSpaceOnUse" primitiveUnits="userSpaceOnUse"><feComponentTransfer color-interpolation-filters="sRGB"><feFuncR type="discrete" tableValues="0 0"/><feFuncG type="discrete" tableValues="0 0"/><feFuncB type="discrete" tableValues="0 0"/><feFuncA type="linear" slope="0.2" intercept="0"/></feComponentTransfer><feGaussianBlur stdDeviation="4.58333 4.58333"/></filter><filter id="fx3" x="-10%" y="-10%" width="120%" height="120%" filterUnits="userSpaceOnUse" primitiveUnits="userSpaceOnUse"><feComponentTransfer color-interpolation-filters="sRGB"><feFuncR type="discrete" tableValues="0 0"/><feFuncG type="discrete" tableValues="0 0"/><feFuncB type="discrete" tableValues="0 0"/><feFuncA type="linear" slope="0.101961" intercept="0"/></feComponentTransfer><feGaussianBlur stdDeviation="4.58333 4.58333"/></filter><filter id="fx4" x="-10%" y="-10%" width="120%" height="120%" filterUnits="userSpaceOnUse" primitiveUnits="userSpaceOnUse"><feComponentTransfer color-interpolation-filters="sRGB"><feFuncR type="discrete" tableValues="0 0"/><feFuncG type="discrete" tableValues="0 0"/><feFuncB type="discrete" tableValues="0 0"/><feFuncA type="linear" slope="0.101961" intercept="0"/></feComponentTransfer><feGaussianBlur stdDeviation="4.58333 4.58333"/></filter><filter id="fx5" x="-10%" y="-10%" width="120%" height="120%" filterUnits="userSpaceOnUse" primitiveUnits="userSpaceOnUse"><feComponentTransfer color-interpolation-filters="sRGB"><feFuncR type="discrete" tableValues="0 0"/><feFuncG type="discrete" tableValues="0 0"/><feFuncB type="discrete" tableValues="0 0"/><feFuncA type="linear" slope="0.101961" intercept="0"/></feComponentTransfer><feGaussianBlur stdDeviation="4.58333 4.58333"/></filter><filter id="fx6" x="-10%" y="-10%" width="120%" height="120%" filterUnits="userSpaceOnUse" primitiveUnits="userSpaceOnUse"><feComponentTransfer color-interpolation-filters="sRGB"><feFuncR type="discrete" tableValues="0 0"/><feFuncG type="discrete" tableValues="0 0"/><feFuncB type="discrete" tableValues="0 0"/><feFuncA type="linear" slope="0.101961" intercept="0"/></feComponentTransfer><feGaussianBlur stdDeviation="4.58333 4.58333"/></filter><filter id="fx7" x="-10%" y="-10%" width="120%" height="120%" filterUnits="userSpaceOnUse" primitiveUnits="userSpaceOnUse"><feComponentTransfer color-interpolation-filters="sRGB"><feFuncR type="discrete" tableValues="0 0"/><feFuncG type="discrete" tableValues="0 0"/><feFuncB type="discrete" tableValues="0 0"/><feFuncA type="linear" slope="0.101961" intercept="0"/></feComponentTransfer><feGaussianBlur stdDeviation="4.58333 4.58333"/></filter><filter id="fx8" x="-10%" y="-10%" width="120%" height="120%" filterUnits="userSpaceOnUse" primitiveUnits="userSpaceOnUse"><feComponentTransfer color-interpolation-filters="sRGB"><feFuncR type="discrete" tableValues="0 0"/><feFuncG type="discrete" tableValues="0 0"/><feFuncB type="discrete" tableValues="0 0"/><feFuncA type="linear" slope="0.2" intercept="0"/></feComponentTransfer><feGaussianBlur stdDeviation="4.58333 4.58333"/></filter><clipPath id="clip9"><rect x="1205" y="434" width="1484" height="1535"/></clipPath><clipPath id="clip10"><path d="M1973.68 447 1972 686.674 2109.6 690.326C2212.47 693.167 2289.81 710.031 2341.6 740.921 2393.39 771.81 2419.29 820.275 2419.29 886.314L2419.29 897.375 2418.98 897.375 2418.98 939.41 2418.59 939.41 2418.59 973.987 2418.23 973.794 2418.23 1410.33 2418.59 1418.31 2418.59 1435.25 2418.23 1443.23 2418.23 1879.77 2418.59 1879.58 2418.59 1951 2418.98 1951 2671 1951 2671 939.41 2671 897.56 2671 897.375 2670.99 897.375 2669.26 855.499C2658.78 732.824 2611.64 637.468 2527.83 569.431 2432.06 491.675 2285.55 451.377 2088.31 448.536ZM1205 434 2689 434 2689 1969 1205 1969Z" fill-rule="evenodd" clip-rule="evenodd"/></clipPath><linearGradient x1="2896.88" y1="716.197" x2="1746.12" y2="1681.8" gradientUnits="userSpaceOnUse" spreadMethod="reflect" id="fill11"><stop offset="0" stop-color="#AC4FC5"/><stop offset="0.5" stop-color="#8A97E2"/><stop offset="1" stop-color="#ADB9CA"/></linearGradient><clipPath id="clip12"><path d="M1952.53 446 1891.62 449.077C1512.7 487.576 1217 807.74 1217 1197 1217 1586.26 1512.7 1906.42 1891.62 1944.92L1952.53 1948 1952.53 1947.14 2298.79 1947.14 2298.79 1948 2551 1948 2551 895.029 2551 894.844 2550.99 894.844 2549.26 852.987C2538.77 730.366 2491.6 635.053 2407.73 567.047 2311.88 489.325 2165.27 449.044 1967.89 446.205ZM1205 434 2689 434 2689 1969 1205 1969Z" fill-rule="evenodd" clip-rule="evenodd"/></clipPath><linearGradient x1="1138.25" y1="534.665" x2="2629.75" y2="1859.34" gradientUnits="userSpaceOnUse" spreadMethod="reflect" id="fill13"><stop offset="0" stop-color="#FFFFFF"/><stop offset="0.36" stop-color="#FFFFFF"/><stop offset="1" stop-color="#F2F2F2"/></linearGradient><clipPath id="clip14"><path d="M1941.9 479.414C1564.55 491.774 1261.18 794.176 1247.62 1171.49 1233.38 1567.91 1543.19 1900.83 1939.62 1915.07L1946 1737.51C1662.03 1727.3 1434.43 1498.98 1425.13 1214.98 1415.36 916.59 1649.33 666.774 1947.72 657.001ZM1205 434 2689 434 2689 1969 1205 1969Z" fill-rule="evenodd" clip-rule="evenodd"/></clipPath><linearGradient x1="1369.25" y1="383.762" x2="2031.66" y2="1893.32" gradientUnits="userSpaceOnUse" spreadMethod="reflect" id="fill15"><stop offset="0" stop-color="#AC4FC5"/><stop offset="0.5" stop-color="#8A97E2"/><stop offset="1" stop-color="#ADB9CA"/></linearGradient><clipPath id="clip16"><path d="M2396.08 1797.08C2394.46 1797.08 2393.01 1797.56 2391.73 1798.52 2390.44 1799.48 2389.54 1800.73 2389.02 1802.28L2380.41 1829.15 2352.5 1829.15C2351.49 1829.15 2350.54 1829.35 2349.64 1829.76 2348.74 1830.16 2347.95 1830.7 2347.28 1831.38 2346.61 1832.06 2346.07 1832.86 2345.67 1833.77 2345.28 1834.68 2345.08 1835.65 2345.08 1836.67 2345.08 1837.88 2345.35 1839.02 2345.88 1840.08 2346.42 1841.15 2347.17 1842.04 2348.15 1842.75L2370.74 1859.37 2362.08 1886.24C2361.83 1887.05 2361.71 1887.8 2361.71 1888.52 2361.71 1889.57 2361.91 1890.55 2362.31 1891.46 2362.7 1892.38 2363.24 1893.17 2363.91 1893.85 2364.58 1894.53 2365.37 1895.08 2366.27 1895.48 2367.17 1895.88 2368.13 1896.08 2369.14 1896.08 2370.75 1896.08 2372.21 1895.6 2373.49 1894.64L2396.08 1878.03 2418.67 1894.64C2419.98 1895.6 2421.43 1896.08 2423.02 1896.08 2424.03 1896.08 2424.98 1895.89 2425.89 1895.5 2426.79 1895.11 2427.57 1894.58 2428.25 1893.9 2428.92 1893.22 2429.45 1892.42 2429.83 1891.51 2430.21 1890.6 2430.4 1889.63 2430.4 1888.61 2430.4 1887.84 2430.28 1887.05 2430.03 1886.24L2421.42 1859.37 2444.01 1842.75C2444.99 1842.04 2445.74 1841.15 2446.28 1840.08 2446.81 1839.02 2447.08 1837.88 2447.08 1836.67 2447.08 1835.65 2446.88 1834.68 2446.48 1833.77 2446.09 1832.86 2445.55 1832.06 2444.88 1831.38 2444.21 1830.7 2443.42 1830.16 2442.52 1829.76 2441.62 1829.35 2440.66 1829.15 2439.66 1829.15L2411.75 1829.15 2403.14 1802.28C2402.62 1800.73 2401.71 1799.48 2400.43 1798.52 2399.15 1797.56 2397.7 1797.08 2396.08 1797.08ZM1205 434 2689 434 2689 1969 1205 1969Z" fill-rule="evenodd" clip-rule="evenodd"/></clipPath><linearGradient x1="2450.38" y1="1801.02" x2="2341.78" y2="1892.15" gradientUnits="userSpaceOnUse" spreadMethod="reflect" id="fill17"><stop offset="0" stop-color="#A8B1DB"/><stop offset="0.0117647" stop-color="#A7B0DA"/><stop offset="0.0235294" stop-color="#A7B0DA"/><stop offset="0.0352941" stop-color="#A7B0DA"/><stop offset="0.0470588" stop-color="#A7B0DA"/><stop offset="0.0588235" stop-color="#A7B0DA"/><stop offset="0.0705882" stop-color="#A7B0DA"/><stop offset="0.0823529" stop-color="#A7B0DA"/><stop offset="0.0941176" stop-color="#A7AFDA"/><stop offset="0.105882" stop-color="#A7AFDA"/><stop offset="0.117647" stop-color="#A7AFDA"/><stop offset="0.129412" stop-color="#A6AFD9"/><stop offset="0.141176" stop-color="#A6AED9"/><stop offset="0.152941" stop-color="#A6AED9"/><stop offset="0.164706" stop-color="#A6AED9"/><stop offset="0.176471" stop-color="#A5ADD9"/><stop offset="0.188235" stop-color="#A5ADD8"/><stop offset="0.2" stop-color="#A5ACD8"/><stop offset="0.211765" stop-color="#A5ACD8"/><stop offset="0.223529" stop-color="#A4ABD7"/><stop offset="0.235294" stop-color="#A4ABD7"/><stop offset="0.247059" stop-color="#A4AAD7"/><stop offset="0.258824" stop-color="#A3AAD7"/><stop offset="0.270588" stop-color="#A3A9D6"/><stop offset="0.282353" stop-color="#A2A8D6"/><stop offset="0.294118" stop-color="#A2A8D5"/><stop offset="0.305882" stop-color="#A2A7D5"/><stop offset="0.317647" stop-color="#A1A6D5"/><stop offset="0.329412" stop-color="#A1A6D4"/><stop offset="0.341176" stop-color="#A0A5D4"/><stop offset="0.352941" stop-color="#A0A4D3"/><stop offset="0.364706" stop-color="#9FA4D3"/><stop offset="0.376471" stop-color="#9FA3D2"/><stop offset="0.388235" stop-color="#9EA2D2"/><stop offset="0.4" stop-color="#9EA1D2"/><stop offset="0.411765" stop-color="#9DA0D1"/><stop offset="0.423529" stop-color="#9D9FD1"/><stop offset="0.435294" stop-color="#9C9ED0"/><stop offset="0.447059" stop-color="#9B9DCF"/><stop offset="0.458824" stop-color="#9B9DCF"/><stop offset="0.470588" stop-color="#9A9CCE"/><stop offset="0.482353" stop-color="#999BCE"/><stop offset="0.494118" stop-color="#999ACD"/><stop offset="0.505882" stop-color="#9899CD"/><stop offset="0.517647" stop-color="#9797CC"/><stop offset="0.529412" stop-color="#9796CB"/><stop offset="0.541176" stop-color="#9695CB"/><stop offset="0.552941" stop-color="#9594CA"/><stop offset="0.564706" stop-color="#9593C9"/><stop offset="0.576471" stop-color="#9492C9"/><stop offset="0.588235" stop-color="#9391C8"/><stop offset="0.6" stop-color="#928FC7"/><stop offset="0.611765" stop-color="#928EC7"/><stop offset="0.623529" stop-color="#918DC6"/><stop offset="0.635294" stop-color="#908CC5"/><stop offset="0.647059" stop-color="#8F8AC4"/><stop offset="0.658824" stop-color="#8E89C4"/><stop offset="0.670588" stop-color="#8E88C3"/><stop offset="0.682353" stop-color="#8D86C2"/><stop offset="0.694118" stop-color="#8C85C1"/><stop offset="0.705882" stop-color="#8B84C0"/><stop offset="0.717647" stop-color="#8A82C0"/><stop offset="0.729412" stop-color="#8981BF"/><stop offset="0.741176" stop-color="#887FBE"/><stop offset="0.752941" stop-color="#877EBD"/><stop offset="0.764706" stop-color="#867CBC"/><stop offset="0.776471" stop-color="#857BBB"/><stop offset="0.788235" stop-color="#8479BA"/><stop offset="0.8" stop-color="#8378BA"/><stop offset="0.811765" stop-color="#8276B9"/><stop offset="0.823529" stop-color="#8175B8"/><stop offset="0.835294" stop-color="#8073B7"/><stop offset="0.847059" stop-color="#7F72B6"/><stop offset="0.858824" stop-color="#7E70B5"/><stop offset="0.870588" stop-color="#7D6EB4"/><stop offset="0.882353" stop-color="#7C6CB3"/><stop offset="0.894118" stop-color="#7B6BB2"/><stop offset="0.905882" stop-color="#7A69B1"/><stop offset="0.917647" stop-color="#7967B0"/><stop offset="0.929412" stop-color="#7866AF"/><stop offset="0.941176" stop-color="#7664AE"/><stop offset="0.952941" stop-color="#7562AD"/><stop offset="0.964706" stop-color="#7460AC"/><stop offset="0.976471" stop-color="#735EAB"/><stop offset="0.988235" stop-color="#725CAA"/><stop offset="1" stop-color="#715BA9"/></linearGradient></defs><g clip-path="url(#clip9)" transform="translate(-1205 -434)"><g clip-path="url(#clip10)"><g filter="url(#fx0)" transform="translate(1959 434)"><g><path d="M17.9178 16.2408 132.555 17.7772C329.789 20.6176 476.297 60.9158 572.076 138.672 655.883 206.709 703.024 302.065 713.5 424.74L715.233 466.616 715.241 466.616 715.241 466.801 715.241 508.65 715.241 1520.24 463.216 1520.24 462.833 1520.24 462.833 1448.82 462.472 1449.01 462.472 1012.47 462.833 1004.5 462.833 987.552 462.472 979.574 462.472 543.034 462.833 543.228 462.833 508.65 463.216 508.65 463.216 466.616 463.526 466.616 463.526 455.555C463.526 389.516 437.63 341.051 385.838 310.162 334.046 279.272 256.713 262.407 153.839 259.567L16.241 255.915Z" stroke="#000000" stroke-width="2" stroke-miterlimit="8" stroke-opacity="0.34902" fill="#FF0000" fill-rule="evenodd"/></g></g></g><path d="M1973.68 447 2088.31 448.536C2285.55 451.377 2432.06 491.675 2527.83 569.431 2611.64 637.468 2658.78 732.824 2669.26 855.5L2670.99 897.375 2671 897.375 2671 897.56 2671 939.41 2671 1951 2418.98 1951 2418.59 1951 2418.59 1879.58 2418.23 1879.77 2418.23 1443.23 2418.59 1435.25 2418.59 1418.31 2418.23 1410.33 2418.23 973.794 2418.59 973.987 2418.59 939.41 2418.98 939.41 2418.98 897.375 2419.29 897.375 2419.29 886.314C2419.29 820.275 2393.39 771.81 2341.6 740.921 2289.81 710.031 2212.47 693.167 2109.6 690.326L1972 686.674Z" stroke="#000000" stroke-width="2.29167" stroke-miterlimit="8" stroke-opacity="0.34902" fill="url(#fill11)" fill-rule="evenodd"/><g clip-path="url(#clip12)"><g filter="url(#fx1)" transform="translate(1204 433)"><g><path d="M751.769 16.2408 767.131 16.4464C964.509 19.2853 1111.12 59.5655 1206.97 137.288 1290.84 205.294 1338.02 300.607 1348.5 423.228L1350.23 465.085 1350.24 465.085 1350.24 465.27 1350.24 1518.24 1098.03 1518.24 1098.03 1517.38 751.769 1517.38 751.769 1518.24 690.86 1515.16C311.936 1476.66 16.2407 1156.5 16.2407 767.241 16.2407 377.981 311.936 57.8174 690.86 19.3178Z" stroke="#000000" stroke-width="2" stroke-miterlimit="8" stroke-opacity="0.34902" fill="#FF0000" fill-rule="evenodd"/></g></g></g><path d="M1952.53 446 1967.89 446.205C2165.27 449.044 2311.88 489.325 2407.73 567.047 2491.6 635.053 2538.77 730.366 2549.26 852.987L2550.99 894.844 2551 894.844 2551 895.029 2551 1948 2298.79 1948 2298.79 1947.14 1952.53 1947.14 1952.53 1948 1891.62 1944.92C1512.7 1906.42 1217 1586.26 1217 1197 1217 807.74 1512.7 487.576 1891.62 449.077Z" stroke="#000000" stroke-width="2.29167" stroke-miterlimit="8" stroke-opacity="0.34902" fill="url(#fill13)" fill-rule="evenodd"/><g clip-path="url(#clip14)"><g filter="url(#fx2)" transform="translate(1234 466)"><g><path d="M708.86 1452.31C312.435 1438.07 2.61836 1105.15 16.865 708.728 30.4247 331.417 333.79 29.0148 711.142 16.6548L716.959 194.242C418.569 204.015 184.599 453.831 194.373 752.221 203.675 1036.22 431.269 1264.54 715.241 1274.75Z" stroke="#000000" stroke-width="2.29167" stroke-miterlimit="8" stroke-opacity="0.34902" fill="#FF0000" fill-rule="evenodd"/></g></g></g><path d="M1939.62 1915.07C1543.19 1900.83 1233.38 1567.91 1247.62 1171.49 1261.18 794.176 1564.55 491.774 1941.9 479.414L1947.72 657.001C1649.33 666.774 1415.36 916.59 1425.13 1214.98 1434.43 1498.98 1662.03 1727.3 1946 1737.51Z" stroke="#000000" stroke-width="2.29167" stroke-miterlimit="8" stroke-opacity="0.34902" fill="url(#fill15)" fill-rule="evenodd"/><g filter="url(#fx3)" transform="translate(2455 885)"><g><rect x="15.241" y="15.2407" width="83.9999" height="211" fill="#715BA9" fill-opacity="0.2"/></g></g><rect x="2467" y="897" width="83.9998" height="211" fill="#715BA9" fill-opacity="0.2"/><g filter="url(#fx4)" transform="translate(2455 1095)"><g><rect x="15.241" y="15.2407" width="83.9999" height="211" fill="#715BA9" fill-opacity="0.25098"/></g></g><rect x="2467" y="1107" width="83.9998" height="211" fill="#715BA9" fill-opacity="0.25098"/><g filter="url(#fx5)" transform="translate(2455 1307)"><g><rect x="15.241" y="15.2408" width="83.9999" height="211" fill="#715BA9" fill-opacity="0.301961"/></g></g><rect x="2467" y="1319" width="83.9998" height="211" fill="#715BA9" fill-opacity="0.301961"/><g filter="url(#fx6)" transform="translate(2455 1518)"><g><rect x="15.241" y="15.241" width="83.9999" height="211" fill="#9287DC" fill-opacity="0.501961"/></g></g><rect x="2467" y="1530" width="83.9998" height="211" fill="#9287DC" fill-opacity="0.501961"/><g filter="url(#fx7)" transform="translate(2455 1729)"><g><rect x="15.241" y="15.241" width="83.9999" height="211" fill="#96A2DA" fill-opacity="0.74902"/></g></g><rect x="2467" y="1741" width="83.9998" height="211" fill="#96A2DA" fill-opacity="0.74902"/><g clip-path="url(#clip16)"><g filter="url(#fx8)" transform="translate(2332 1784)"><g><path d="M118.32 55.9128C118.32 57.1199 118.053 58.2568 117.518 59.3244 116.983 60.3919 116.227 61.2816 115.25 61.9933L92.6596 78.6093 101.274 105.483C101.518 106.287 101.641 107.076 101.641 107.85 101.641 108.871 101.45 109.838 101.068 110.751 100.686 111.663 100.159 112.46 99.4871 113.141 98.8151 113.822 98.0284 114.355 97.127 114.742 96.2258 115.129 95.2712 115.322 94.2634 115.322 92.6747 115.322 91.2234 114.843 89.9102 113.884L67.3199 97.2674 44.7296 113.884C43.4462 114.843 41.9953 115.322 40.3764 115.322 39.3681 115.322 38.4135 115.121 37.5123 114.719 36.6111 114.317 35.8245 113.775 35.1524 113.095 34.4803 112.414 33.9458 111.617 33.5487 110.704 33.1515 109.791 32.9529 108.809 32.9529 107.757 32.9529 107.045 33.0752 106.287 33.3195 105.483L41.9802 78.6093 19.3896 61.9933C18.412 61.2816 17.656 60.3919 17.1214 59.3244 16.5868 58.2568 16.3195 57.1199 16.3195 55.9128 16.3195 54.8919 16.5181 53.9247 16.9152 53.0122 17.3123 52.0991 17.8469 51.3024 18.519 50.6216 19.191 49.9409 19.9777 49.3996 20.8788 48.9972 21.78 48.5954 22.7346 48.394 23.7427 48.394L51.6484 48.394 60.2629 21.5206C60.7825 19.9734 61.6836 18.7204 62.9667 17.761 64.2497 16.8015 65.7007 16.3223 67.3199 16.3223 68.9387 16.3223 70.3897 16.8015 71.6731 17.761 72.9557 18.7204 73.8573 19.9734 74.3761 21.5206L82.9909 48.394 110.897 48.394C111.905 48.394 112.859 48.5954 113.761 48.9972 114.662 49.3996 115.448 49.9409 116.12 50.6216 116.792 51.3024 117.327 52.0991 117.724 53.0122 118.121 53.9247 118.32 54.8919 118.32 55.9128Z" stroke="#000000" stroke-width="2" stroke-miterlimit="8" stroke-opacity="0.34902" fill="#FF0000" fill-rule="evenodd"/></g></g></g><path d="M2447.08 1836.67C2447.08 1837.88 2446.81 1839.02 2446.28 1840.08 2445.74 1841.15 2444.99 1842.04 2444.01 1842.75L2421.42 1859.37 2430.03 1886.24C2430.28 1887.05 2430.4 1887.84 2430.4 1888.61 2430.4 1889.63 2430.21 1890.6 2429.83 1891.51 2429.44 1892.42 2428.92 1893.22 2428.25 1893.9 2427.57 1894.58 2426.79 1895.11 2425.89 1895.5 2424.98 1895.89 2424.03 1896.08 2423.02 1896.08 2421.43 1896.08 2419.98 1895.6 2418.67 1894.64L2396.08 1878.03 2373.49 1894.64C2372.21 1895.6 2370.75 1896.08 2369.14 1896.08 2368.13 1896.08 2367.17 1895.88 2366.27 1895.48 2365.37 1895.08 2364.58 1894.53 2363.91 1893.85 2363.24 1893.17 2362.7 1892.38 2362.31 1891.46 2361.91 1890.55 2361.71 1889.57 2361.71 1888.52 2361.71 1887.8 2361.83 1887.05 2362.08 1886.24L2370.74 1859.37 2348.15 1842.75C2347.17 1842.04 2346.42 1841.15 2345.88 1840.08 2345.35 1839.02 2345.08 1837.88 2345.08 1836.67 2345.08 1835.65 2345.28 1834.68 2345.67 1833.77 2346.07 1832.86 2346.61 1832.06 2347.28 1831.38 2347.95 1830.7 2348.74 1830.16 2349.64 1829.76 2350.54 1829.35 2351.49 1829.15 2352.5 1829.15L2380.41 1829.15 2389.02 1802.28C2389.54 1800.73 2390.44 1799.48 2391.73 1798.52 2393.01 1797.56 2394.46 1797.08 2396.08 1797.08 2397.7 1797.08 2399.15 1797.56 2400.43 1798.52 2401.71 1799.48 2402.62 1800.73 2403.14 1802.28L2411.75 1829.15 2439.66 1829.15C2440.66 1829.15 2441.62 1829.35 2442.52 1829.76 2443.42 1830.16 2444.21 1830.7 2444.88 1831.38 2445.55 1832.06 2446.09 1832.86 2446.48 1833.77 2446.88 1834.68 2447.08 1835.65 2447.08 1836.67Z" stroke="#000000" stroke-width="2.29167" stroke-miterlimit="8" stroke-opacity="0.34902" fill="url(#fill17)" fill-rule="evenodd"/><path d="M1655 1465.17C1655 1461.21 1658.21 1458 1662.17 1458L2124.83 1458C2128.79 1458 2132 1461.21 2132 1465.17L2132 1493.83C2132 1497.79 2128.79 1501 2124.83 1501L1662.17 1501C1658.21 1501 1655 1497.79 1655 1493.83Z" fill="#715BA9" fill-rule="evenodd" fill-opacity="0.25098"/><path d="M1655 1223.17C1655 1219.21 1658.21 1216 1662.17 1216L2346.83 1216C2350.79 1216 2354 1219.21 2354 1223.17L2354 1251.83C2354 1255.79 2350.79 1259 2346.83 1259L1662.17 1259C1658.21 1259 1655 1255.79 1655 1251.83Z" fill="#715BA9" fill-rule="evenodd" fill-opacity="0.14902"/><path d="M1655 1344.17C1655 1340.21 1658.21 1337 1662.17 1337L2225.83 1337C2229.79 1337 2233 1340.21 2233 1344.17L2233 1372.83C2233 1376.79 2229.79 1380 2225.83 1380L1662.17 1380C1658.21 1380 1655 1376.79 1655 1372.83Z" fill="#715BA9" fill-rule="evenodd" fill-opacity="0.2"/><path d="M1655 981.166C1655 977.208 1658.21 974 1662.17 974L2346.83 974C2350.79 974 2354 977.208 2354 981.166L2354 1009.83C2354 1013.79 2350.79 1017 2346.83 1017L1662.17 1017C1658.21 1017 1655 1013.79 1655 1009.83Z" fill="#715BA9" fill-rule="evenodd" fill-opacity="0.0784314"/><path d="M1655 1102.17C1655 1098.21 1658.21 1095 1662.17 1095L2346.83 1095C2350.79 1095 2354 1098.21 2354 1102.17L2354 1130.83C2354 1134.79 2350.79 1138 2346.83 1138L1662.17 1138C1658.21 1138 1655 1134.79 1655 1130.83Z" fill="#715BA9" fill-rule="evenodd" fill-opacity="0.14902"/><text fill="#9287DC" font-family="DengXian,DengXian_MSFontService,sans-serif" font-weight="700" font-size="55" transform="matrix(1 0 0 1 2020.86 1863)">Notebook</text></g></svg>