<svg xmlns="http://www.w3.org/2000/svg" version="1.1" xmlns:xlink="http://www.w3.org/1999/xlink" xmlns:svgjs="http://svgjs.com/svgjs" width="512" height="512" x="0" y="0" viewBox="0 0 404.48 404.48" style="enable-background:new 0 0 512 512" xml:space="preserve" class=""><g>
<path xmlns="http://www.w3.org/2000/svg" style="" d="M376.325,87.04c0-16.896-13.824-30.72-30.72-30.72h-230.41c-16.896,0-30.72,13.824-30.72,30.72  v286.72c0,16.896,13.824,30.72,30.72,30.72H289.26l87.04-81.92L376.325,87.04z" fill="#dadee0" data-original="#dadee0" class=""></path>
<path xmlns="http://www.w3.org/2000/svg" style="" d="M84.475,87.04c0-16.896,13.824-30.72,30.72-30.72h204.81v-25.6c0-16.896-13.824-30.72-30.72-30.72  H58.875c-16.896,0-30.72,13.824-30.72,30.72v286.72c0,16.896,13.824,30.72,30.72,30.72h25.6V87.04z" fill="#a93dd4" data-original="#1bb7ea" class=""></path>
<path xmlns="http://www.w3.org/2000/svg" style="" d="M319.985,322.56h56.32l-87.04,81.92v-51.2C289.265,336.384,303.089,322.56,319.985,322.56z" fill="#f2f2f2" data-original="#f2f2f2"></path>
<g xmlns="http://www.w3.org/2000/svg">
	<path style="" d="M161.275,192h138.24c4.245,0,7.68-3.441,7.68-7.68c0-4.244-3.436-7.68-7.68-7.68h-138.24   c-4.244,0-7.68,3.436-7.68,7.68C153.595,188.559,157.03,192,161.275,192" fill="#1f4254" data-original="#1f4254" class=""></path>
	<path style="" d="M161.275,140.8h138.24c4.245,0,7.68-3.441,7.68-7.68c0-4.244-3.436-7.68-7.68-7.68h-138.24   c-4.244,0-7.68,3.436-7.68,7.68C153.595,137.359,157.03,140.8,161.275,140.8" fill="#1f4254" data-original="#1f4254" class=""></path>
	<path style="" d="M161.275,243.2h138.24c4.245,0,7.68-3.441,7.68-7.68c0-4.244-3.436-7.68-7.68-7.68h-138.24   c-4.244,0-7.68,3.436-7.68,7.68C153.595,239.759,157.03,243.2,161.275,243.2" fill="#1f4254" data-original="#1f4254" class=""></path>
	<path style="" d="M161.275,294.4h76.8c4.244,0,7.68-3.441,7.68-7.68c0-4.245-3.436-7.68-7.68-7.68h-76.8   c-4.244,0-7.68,3.435-7.68,7.68C153.595,290.959,157.03,294.4,161.275,294.4" fill="#1f4254" data-original="#1f4254" class=""></path>
</g>
<g xmlns="http://www.w3.org/2000/svg">
</g>
<g xmlns="http://www.w3.org/2000/svg">
</g>
<g xmlns="http://www.w3.org/2000/svg">
</g>
<g xmlns="http://www.w3.org/2000/svg">
</g>
<g xmlns="http://www.w3.org/2000/svg">
</g>
<g xmlns="http://www.w3.org/2000/svg">
</g>
<g xmlns="http://www.w3.org/2000/svg">
</g>
<g xmlns="http://www.w3.org/2000/svg">
</g>
<g xmlns="http://www.w3.org/2000/svg">
</g>
<g xmlns="http://www.w3.org/2000/svg">
</g>
<g xmlns="http://www.w3.org/2000/svg">
</g>
<g xmlns="http://www.w3.org/2000/svg">
</g>
<g xmlns="http://www.w3.org/2000/svg">
</g>
<g xmlns="http://www.w3.org/2000/svg">
</g>
<g xmlns="http://www.w3.org/2000/svg">
</g>
</g></svg>