<svg xmlns="http://www.w3.org/2000/svg" version="1.1" xmlns:xlink="http://www.w3.org/1999/xlink" xmlns:svgjs="http://svgjs.com/svgjs" width="512" height="512" x="0" y="0" viewBox="0 0 512.002 512.002" style="enable-background:new 0 0 512 512" xml:space="preserve" class=""><g><linearGradient xmlns="http://www.w3.org/2000/svg" id="SVGID_1_" gradientUnits="userSpaceOnUse" x1="256.001" x2="256.001" y1="512.001" y2=".001"><stop stop-opacity="1" stop-color="#e22090" offset="0.019305019305019305"></stop><stop stop-opacity="1" stop-color="#ff6c9b" offset="1"></stop></linearGradient><g xmlns="http://www.w3.org/2000/svg"><g><g><path d="m256.908.227c3.001-.545-90.333-4.457-166.904 61.479l-22.354-37.265c-3.281-5.449-9.668-8.174-15.82-6.987-6.24 1.26-10.986 6.299-11.895 12.583l-21.211 148.491c-1.422 9.86 7.063 18.37 16.963 16.978l148.477-21.211c6.299-.908 11.338-5.654 12.598-11.88s-1.553-12.568-7.002-15.835l-35.391-21.24c48.366-37.928 99.147-34.596 102.158-35.112 96.999 0 164.703 81.255 164.473 165.044.232 84.307-67.666 164.956-164.561 164.956-107.043-4.867-165.658-85.7-165.439-164.957 0-8.501-6.865-15.044-15-15.044h-60.998c-8.262 0-14.971 6.68-15 14.941-.542 146.213 121.146 256.833 256.818 256.833 129.935 0 255.753-106.974 255.18-256.715.556-149.99-125.805-255.059-255.092-255.059z" fill="url(#SVGID_1_)" data-original="url(#SVGID_1_)"></path></g></g></g></g></svg>