<svg xmlns="http://www.w3.org/2000/svg" version="1.1" xmlns:xlink="http://www.w3.org/1999/xlink" xmlns:svgjs="http://svgjs.com/svgjs" width="512" height="512" x="0" y="0" viewBox="0 0 96 96" style="enable-background:new 0 0 512 512" xml:space="preserve" class=""><g><g xmlns="http://www.w3.org/2000/svg" id="Backend_Coding-2" data-name="Backend Coding"><path d="m81.75 12.83v77.48a4.67 4.67 0 0 1 -4.67 4.69h-62.89a4.67 4.67 0 0 1 -4.67-4.66v-77.51z" fill="#dbecff" data-original="#dbecff"></path><path d="m81.75 12.83v-7.16a4.67 4.67 0 0 0 -4.67-4.67h-62.89a4.67 4.67 0 0 0 -4.67 4.67v7.16z" fill="#619fff" data-original="#619fff"></path><path d="m27 1h-12.81a4.67 4.67 0 0 0 -4.67 4.67v7.16h17.48z" fill="#5955a1" data-original="#5955a1"></path><path d="m67.17 7.92h-.4a1 1 0 0 1 0-2h.4a1 1 0 0 1 0 2z" fill="#5955a1" data-original="#5955a1"></path><path d="m71.53 7.92h-.4a1 1 0 0 1 0-2h.4a1 1 0 0 1 0 2z" fill="#5955a1" data-original="#5955a1"></path><path d="m75.89 7.92h-.4a1 1 0 0 1 0-2h.4a1 1 0 0 1 0 2z" fill="#5955a1" data-original="#5955a1"></path><rect fill="#619fff" height="26.5" rx="2.9" transform="matrix(0 1 -1 0 59.64 27.13)" width="45.63" x="-6.56" y="30.13" data-original="#619fff"></rect><g fill="#5955a1"><path d="m18.13 37.59h-10.63a1 1 0 0 1 0-2h10.63a1 1 0 0 1 0 2z" fill="#5955a1" data-original="#5955a1"></path><path d="m21 43.51h-13.5a1 1 0 0 1 0-2h13.5a1 1 0 0 1 0 2z" fill="#5955a1" data-original="#5955a1"></path><path d="m25 61.26h-17.5a1 1 0 1 1 0-2h17.5a1 1 0 0 1 0 2z" fill="#5955a1" data-original="#5955a1"></path><path d="m22 31.77a1 1 0 0 1 -.71-1.71l2.3-2.3-2.3-2.3a1 1 0 0 1 1.41-1.41l3 3a1 1 0 0 1 0 1.41l-3 3a1 1 0 0 1 -.7.31z" fill="#5955a1" data-original="#5955a1"></path><path d="m10.51 31.77a1 1 0 0 1 -.71-.29l-3-3a1 1 0 0 1 0-1.41l3-3a1 1 0 0 1 1.42 0 1 1 0 0 1 0 1.41l-2.3 2.3 2.3 2.3a1 1 0 0 1 -.71 1.69z" fill="#5955a1" data-original="#5955a1"></path><path d="m14.5 30.58a1 1 0 0 1 -.71-1.7l3.64-3.64a1 1 0 0 1 1.41 1.41l-3.64 3.64a1 1 0 0 1 -.7.29z" fill="#5955a1" data-original="#5955a1"></path><path d="m23.11 37.59h-1.45a1 1 0 1 1 0-2h1.45a1 1 0 0 1 0 2z" fill="#5955a1" data-original="#5955a1"></path><path d="m15.05 49h-7.55a1 1 0 0 1 0-2h7.55a1 1 0 1 1 0 2z" fill="#5955a1" data-original="#5955a1"></path><path d="m22 55h-14.5a1 1 0 0 1 0-2h14.5a1 1 0 0 1 0 2z" fill="#5955a1" data-original="#5955a1"></path></g><rect fill="#f4fbff" height="31.33" rx="2.9" width="57" x="36" y="20.57" data-original="#f4fbff" class=""></rect><path d="m87.45 51.91-14.16-14.17-14.17 14.17z" fill="#5955a1" data-original="#5955a1"></path><path d="m75.6 51.91-17.6-17.61-17.6 17.61z" fill="#777dba" data-original="#777dba"></path><circle cx="67.29" cy="29.71" fill="#ffab57" r="3.71" data-original="#ffab57"></circle><rect fill="#ffab57" height="26.5" rx="2.9" transform="matrix(0 1 -1 0 97.31 64.81)" width="16.65" x="7.93" y="67.81" data-original="#ffab57"></rect><rect fill="#00b496" height="23.96" rx="2.9" transform="matrix(0 1 -1 0 114.4 17.99)" width="16.65" x="39.88" y="54.22" data-original="#00b496"></rect><path d="m51.67 70.33a1 1 0 0 1 1-1 .87.87 0 0 0 .87-.87v-4.52a.87.87 0 0 0 -.87-.87 1 1 0 0 1 -1-1c0-1.88 3.87-1 3.87 1.87v4.52c0 2.86-3.87 3.76-3.87 1.87z" fill="#ffffff" data-original="#ffffff"></path><path d="m56 67.2h-1.46a1 1 0 0 1 0-2h1.46a1 1 0 1 1 0 2z" fill="#ffffff" data-original="#ffffff"></path><path d="m40.87 68.46v-4.52c0-2.86 3.87-3.77 3.87-1.87a1 1 0 0 1 -1 1 .87.87 0 0 0 -.87.87v4.52a.87.87 0 0 0 .87.87 1 1 0 0 1 1 1c0 1.88-3.87 1-3.87-1.87z" fill="#ffffff" data-original="#ffffff"></path><path d="m41.87 67.2h-1.47a1 1 0 1 1 0-2h1.47a1 1 0 0 1 0 2z" fill="#ffffff" data-original="#ffffff"></path><path d="m46.17 69.23a1 1 0 0 1 -.7-1.71l4.06-4.06a1 1 0 0 1 1.42 0 1 1 0 0 1 0 1.41l-4.07 4.07a1 1 0 0 1 -.71.29z" fill="#ffffff" data-original="#ffffff"></path><path d="m24.21 78.83h-15.92a1 1 0 1 1 0-2h15.92a1 1 0 0 1 0 2z" fill="#5955a1" data-original="#5955a1"></path><path d="m18.84 84.67h-10.55a1 1 0 1 1 0-2h10.55a1 1 0 1 1 0 2z" fill="#5955a1" data-original="#5955a1"></path><rect fill="#619fff" height="37.06" rx="2.9" transform="matrix(0 1 -1 0 139.98 30.47)" width="8.33" x="50.59" y="66.69" data-original="#619fff"></rect><rect fill="#5955a1" height="12.5" rx="2.9" transform="matrix(0 1 -1 0 127.7 42.75)" width="8.33" x="38.31" y="78.97" data-original="#5955a1"></rect></g></g></svg>